<?xml version="1.0" encoding="utf-8"?>
<!-- Generator: Adobe Illustrator 24.3.0, SVG Export Plug-In . SVG Version: 6.00 Build 0)  -->
<svg version="1.1" id="圖層_1" xmlns="http://www.w3.org/2000/svg" xmlns:xlink="http://www.w3.org/1999/xlink" x="0px" y="0px"
	 viewBox="0 0 108 26" style="enable-background:new 0 0 108 26;" xml:space="preserve">
<style type="text/css">
	.st0{fill:#E60012;}
	.st1{fill:#00913A;}
	.st2{fill:none;stroke:#F7F8F8;stroke-miterlimit:10;}
	.st3{fill:#FFFFFF;}
</style>
<ellipse transform="matrix(0.954 -0.2997 0.2997 0.954 -2.2714 10.9352)" class="st0" cx="34.51" cy="12.87" rx="7.21" ry="6.79"/>
<path class="st1" d="M29.39,6.47c0,0,2.13,0.39,3.06,0.9c0,0-0.08-2.73,1.54-3.23c0,0-0.8,1.31-0.57,2.93c0,0,1.08-1.31,2.7-1.82
	c0,0-1.37,1.32-1.92,2.38c0,0,1.87,0.3,2.38,1.92c0,0-2.19-1.32-2.97-0.96c0,0-2.66,0.04-2.83,2.33c0,0-0.63-2.02,0.99-2.52
	C31.77,8.4,30.45,7.03,29.39,6.47z"/>
<polyline class="st2" points="1.19,19.82 1.47,8.13 9.29,1.99 17.68,4.45 "/>
<polyline class="st2" points="1.47,8.13 17.48,13.18 17.48,23.88 9.9,21.5 9.85,10.6 "/>
<g>
	<path class="st3" d="M22.49,12.23v4.49h5.92v1.05h-5.92v4.85h-1.21V11.18h7.84v1.05H22.49z"/>
	<path class="st3" d="M35.54,13.96v1.13c-0.1,0-0.2-0.02-0.28-0.02c-1.8,0-2.89,1.14-2.89,3.17v4.38h-1.16v-8.6h1.11v1.68
		C32.86,14.57,33.96,13.96,35.54,13.96z"/>
	<path class="st3" d="M37.37,11.31c0-0.44,0.38-0.82,0.85-0.82c0.47,0,0.85,0.36,0.85,0.8c0,0.47-0.36,0.85-0.85,0.85
		C37.75,12.15,37.37,11.77,37.37,11.31z M37.63,14.03h1.16v8.6h-1.16V14.03z"/>
	<path class="st3" d="M49.87,10.5v12.13h-1.11v-1.7c-0.7,1.16-1.9,1.78-3.32,1.78c-2.45,0-4.28-1.78-4.28-4.38s1.83-4.36,4.28-4.36
		c1.37,0,2.55,0.59,3.27,1.7V10.5H49.87z M48.73,18.32c0-2.01-1.37-3.35-3.19-3.35c-1.83,0-3.2,1.34-3.2,3.35s1.37,3.35,3.2,3.35
		C47.36,21.67,48.73,20.33,48.73,18.32z"/>
	<path class="st3" d="M61.06,14.03v7.55c0,2.96-1.45,4.3-4.3,4.3c-1.57,0-3.1-0.47-4-1.32l0.59-0.88c0.82,0.74,2.06,1.18,3.38,1.18
		c2.17,0,3.17-1,3.17-3.12v-1.1c-0.72,1.1-1.94,1.67-3.35,1.67c-2.45,0-4.31-1.72-4.31-4.18s1.86-4.15,4.31-4.15
		c1.44,0,2.68,0.59,3.4,1.72v-1.65H61.06z M59.94,18.11c0-1.86-1.37-3.14-3.27-3.14s-3.25,1.28-3.25,3.14
		c0,1.86,1.36,3.15,3.25,3.15S59.94,19.97,59.94,18.11z"/>
	<path class="st3" d="M71.8,18.68h-7.19c0.13,1.8,1.5,2.99,3.38,2.99c1.05,0,1.98-0.38,2.63-1.13l0.65,0.75
		c-0.77,0.92-1.96,1.41-3.32,1.41c-2.68,0-4.51-1.83-4.51-4.38c0-2.55,1.78-4.36,4.2-4.36c2.42,0,4.17,1.78,4.17,4.36
		C71.81,18.42,71.8,18.55,71.8,18.68z M64.61,17.82h6.1c-0.15-1.68-1.37-2.86-3.06-2.86C65.98,14.96,64.75,16.13,64.61,17.82z"/>
	<path class="st3" d="M77.69,16.9c0-3.33,2.55-5.82,6.01-5.82c3.43,0,6,2.47,6,5.82c0,3.35-2.57,5.82-6,5.82
		C80.24,22.72,77.69,20.24,77.69,16.9z M88.5,16.9c0-2.73-2.04-4.74-4.79-4.74c-2.76,0-4.82,2.01-4.82,4.74s2.06,4.74,4.82,4.74
		C86.45,21.64,88.5,19.63,88.5,16.9z"/>
	<path class="st3" d="M99.91,14.03v8.6H98.8v-1.57c-0.6,1.04-1.72,1.65-3.09,1.65c-2.19,0-3.63-1.23-3.63-3.69v-4.99h1.16v4.87
		c0,1.83,0.95,2.76,2.58,2.76c1.8,0,2.93-1.16,2.93-3.12v-4.51H99.91z"/>
	<path class="st3" d="M107.69,22.1c-0.46,0.41-1.14,0.61-1.81,0.61c-1.62,0-2.52-0.92-2.52-2.5v-5.2h-1.54v-0.98h1.54v-1.88h1.16
		v1.88h2.61v0.98h-2.61v5.13c0,1.01,0.52,1.57,1.49,1.57c0.47,0,0.95-0.15,1.28-0.44L107.69,22.1z"/>
</g>
<circle class="st3" cx="45" cy="-3" r="1"/>
</svg>
