<?xml version="1.0" encoding="utf-8"?>
<!-- Generator: Adobe Illustrator 24.3.0, SVG Export Plug-In . SVG Version: 6.00 Build 0)  -->
<svg version="1.1" id="圖層_1" xmlns="http://www.w3.org/2000/svg" xmlns:xlink="http://www.w3.org/1999/xlink" x="0px" y="0px"
	 viewBox="0 0 27 26" style="enable-background:new 0 0 27 26;" xml:space="preserve">
<style type="text/css">
	.st0{fill:#E60012;}
	.st1{fill:#00913A;}
	.st2{fill:none;stroke:#F7F8F8;stroke-miterlimit:10;}
	.st3{fill:#FFFFFF;}
</style>
<rect x="0" width="27" height="26"/>
<ellipse transform="matrix(0.9674 -0.2534 0.2534 0.9674 -2.3396 6.0107)" class="st0" cx="22.16" cy="12.09" rx="4.68" ry="4.36"/>
<path class="st1" d="M18.84,7.98c0,0,1.38,0.25,1.99,0.58c0,0-0.05-1.75,1-2.08c0,0-0.52,0.84-0.37,1.88c0,0,0.7-0.84,1.76-1.17
	c0,0-0.89,0.85-1.25,1.53c0,0,1.22,0.19,1.55,1.23c0,0-1.42-0.85-1.93-0.62c0,0-1.73,0.03-1.84,1.49c0,0-0.41-1.29,0.64-1.62
	C20.38,9.21,19.53,8.34,18.84,7.98z"/>
<polyline class="st2" points="1.21,19.96 1.49,8.19 9.47,2 18.01,4.48 "/>
<polyline class="st2" points="1.49,8.19 17.81,13.27 17.81,24.05 10.09,21.65 10.04,10.67 "/>
<ellipse class="st3" cx="24.96" cy="10.57" rx="0.51" ry="0.5"/>
</svg>
