<?xml version="1.0" encoding="utf-8"?>
<!-- Generator: Adobe Illustrator 24.3.0, SVG Export Plug-In . SVG Version: 6.00 Build 0)  -->
<svg version="1.1" xmlns="http://www.w3.org/2000/svg" xmlns:xlink="http://www.w3.org/1999/xlink" x="0px" y="0px"
	 viewBox="0 0 113.39 56.69" style="enable-background:new 0 0 113.39 56.69;" xml:space="preserve">
<style type="text/css">
	.st0{display:none;}
	.st1{display:inline;opacity:0.16;fill:#FFFFFF;stroke:#000000;stroke-miterlimit:10;}
	.st2{fill:#E60012;}
	.st3{fill:#00913A;}
	.st4{fill:none;stroke:#F7F8F8;stroke-miterlimit:10;}
	.st5{fill:#FFFFFF;}
</style>
<g id="圖層_1" class="st0">
	<polyline class="st1" points="30.5,39 30.5,15.09 44.5,4.09 63.5,10.09 	"/>
	<line class="st1" x1="44.5" y1="19.5" x2="30.5" y2="15.09"/>
	<line class="st1" x1="45.5" y1="20.5" x2="45.5" y2="39.42"/>
	<line class="st1" x1="59.15" y1="25.27" x2="45.15" y2="20.86"/>
	<line class="st1" x1="59.15" y1="43.27" x2="45.15" y2="38.86"/>
	<line class="st1" x1="59.15" y1="24.6" x2="59.15" y2="43.52"/>
</g>
<g id="圖層_4">
	<rect y="0" width="114" height="57"/>
</g>
<g id="圖層_3">
	<ellipse transform="matrix(0.954 -0.2997 0.2997 0.954 -6.0124 15.3879)" class="st2" cx="47.15" cy="27.29" rx="6.8" ry="6.4"/>
	<path class="st3" d="M42.32,21.26c0,0,2.01,0.36,2.89,0.85c0,0-0.08-2.57,1.45-3.05c0,0-0.76,1.23-0.54,2.76
		c0,0,1.02-1.24,2.55-1.72c0,0-1.29,1.24-1.81,2.25c0,0,1.77,0.28,2.25,1.81c0,0-2.07-1.24-2.8-0.9c0,0-2.5,0.04-2.67,2.19
		c0,0-0.6-1.9,0.93-2.38C44.57,23.07,43.33,21.78,42.32,21.26z"/>
</g>
<g id="圖層_2">
	<polyline class="st4" points="11.71,37.53 12.11,20.8 23.31,12 35.31,15.53 	"/>
	<polyline class="st4" points="12.11,20.8 35.03,28.02 35.03,43.35 24.19,39.93 24.11,24.33 	"/>
	<g>
		<path class="st5" d="M36.9,27.55h0.98v9.88H36.9V27.55z M37.58,27.55h5.54v0.91h-5.54V27.55z M37.58,32.16h4.79v0.91h-4.79V32.16z
			"/>
		<path class="st5" d="M44.55,30.38h0.98v7.06h-0.98V30.38z M48.15,31.3c-0.22-0.08-0.48-0.12-0.76-0.12
			c-0.59,0-1.05,0.16-1.37,0.47c-0.33,0.32-0.49,0.75-0.49,1.31l-0.14-1.36c0.26-0.42,0.6-0.75,1.02-0.98
			c0.42-0.23,0.88-0.35,1.38-0.35c0.32,0,0.61,0.05,0.87,0.14s0.49,0.23,0.68,0.41l-0.63,0.82C48.55,31.49,48.37,31.38,48.15,31.3z"
			/>
		<path class="st5" d="M50.69,30.38h0.98v7.06h-0.98V30.38z"/>
		<path class="st5" d="M54.9,37.2c-0.37-0.22-0.65-0.55-0.84-0.98s-0.29-0.94-0.29-1.54v-1.54c0-0.61,0.09-1.13,0.28-1.56
			c0.19-0.43,0.46-0.76,0.81-0.98c0.36-0.22,0.78-0.34,1.28-0.34c0.54,0,1.01,0.1,1.42,0.3c0.4,0.2,0.73,0.53,0.97,0.99l-0.14,1.36
			c0-0.31-0.07-0.6-0.21-0.88c-0.14-0.28-0.35-0.5-0.62-0.67c-0.27-0.17-0.59-0.26-0.96-0.26c-0.59,0-1.04,0.18-1.37,0.53
			c-0.32,0.36-0.48,0.86-0.48,1.51v1.53c0,0.63,0.16,1.13,0.48,1.48c0.32,0.35,0.78,0.53,1.37,0.53c0.36,0,0.68-0.09,0.95-0.26
			s0.48-0.41,0.63-0.69c0.14-0.28,0.22-0.58,0.22-0.89l0.1,1.47c-0.18,0.43-0.46,0.74-0.84,0.93c-0.38,0.19-0.86,0.28-1.43,0.28
			C55.71,37.54,55.27,37.42,54.9,37.2z M58.4,27.55h0.98v9.88H58.4V27.55z"/>
		<path class="st5" d="M62.41,37.2c-0.37-0.22-0.65-0.55-0.84-0.98s-0.29-0.94-0.29-1.54v-1.54c0-0.61,0.09-1.13,0.28-1.56
			c0.19-0.43,0.46-0.76,0.81-0.98c0.36-0.22,0.78-0.34,1.28-0.34c0.54,0,1.01,0.1,1.42,0.3c0.41,0.2,0.73,0.53,0.98,0.99l-0.14,1.36
			c0-0.31-0.07-0.6-0.21-0.88c-0.14-0.28-0.35-0.5-0.62-0.67c-0.27-0.17-0.59-0.26-0.96-0.26c-0.59,0-1.04,0.18-1.37,0.53
			c-0.32,0.36-0.48,0.86-0.48,1.51v1.53c0,0.63,0.16,1.13,0.48,1.48c0.32,0.35,0.78,0.53,1.37,0.53c0.36,0,0.68-0.09,0.95-0.26
			c0.27-0.18,0.48-0.41,0.62-0.69s0.22-0.58,0.22-0.89L66,36.33c-0.18,0.43-0.46,0.74-0.84,0.93c-0.38,0.19-0.86,0.28-1.43,0.28
			C63.21,37.54,62.77,37.42,62.41,37.2z M62.43,40.01c-0.42-0.2-0.74-0.47-0.97-0.83l0.67-0.6c0.21,0.28,0.47,0.49,0.77,0.64
			c0.3,0.15,0.61,0.23,0.95,0.23c0.66,0,1.17-0.18,1.53-0.55c0.36-0.36,0.54-0.88,0.54-1.54v-6.98h0.98v6.85
			c0,0.65-0.12,1.2-0.36,1.67c-0.24,0.46-0.58,0.81-1.04,1.05s-1,0.36-1.64,0.36C63.32,40.3,62.84,40.21,62.43,40.01z"/>
		<path class="st5" d="M70.21,37.17c-0.46-0.25-0.81-0.61-1.06-1.08c-0.24-0.47-0.36-1.04-0.36-1.71v-0.79
			c0-0.7,0.12-1.29,0.35-1.79c0.23-0.49,0.57-0.87,1.02-1.13c0.44-0.26,0.98-0.39,1.6-0.39c0.59,0,1.09,0.13,1.51,0.38
			c0.42,0.25,0.74,0.62,0.96,1.11s0.33,1.07,0.33,1.76v0.81h-5.1v-0.88h4.19v-0.07c0-0.7-0.17-1.24-0.49-1.62
			c-0.33-0.38-0.79-0.58-1.39-0.58c-0.66,0-1.17,0.2-1.52,0.61c-0.36,0.4-0.54,0.97-0.54,1.71v0.9c0,0.71,0.19,1.25,0.57,1.64
			c0.38,0.39,0.92,0.58,1.61,0.58c0.33,0,0.65-0.07,0.97-0.2c0.32-0.14,0.6-0.33,0.85-0.58l0.67,0.64c-0.34,0.34-0.73,0.6-1.17,0.78
			c-0.44,0.18-0.88,0.28-1.32,0.28C71.23,37.54,70.67,37.41,70.21,37.17z"/>
		<path class="st5" d="M77.98,37.11c-0.52-0.29-0.92-0.7-1.19-1.24c-0.27-0.54-0.41-1.2-0.41-1.97v-2.8c0-0.77,0.14-1.43,0.41-1.97
			c0.27-0.54,0.67-0.96,1.19-1.24c0.52-0.29,1.15-0.43,1.88-0.43c0.73,0,1.36,0.14,1.88,0.43c0.52,0.29,0.92,0.7,1.19,1.24
			c0.27,0.54,0.41,1.2,0.41,1.97v2.8c0,0.77-0.14,1.43-0.41,1.97c-0.27,0.54-0.67,0.96-1.19,1.24c-0.52,0.29-1.15,0.43-1.88,0.43
			C79.13,37.54,78.5,37.39,77.98,37.11z M81.21,36.31c0.37-0.21,0.66-0.52,0.85-0.92s0.29-0.88,0.29-1.45v-2.9
			c0-0.57-0.1-1.05-0.29-1.45s-0.48-0.71-0.85-0.92c-0.37-0.21-0.82-0.32-1.35-0.32c-0.53,0-0.98,0.11-1.35,0.32
			s-0.66,0.52-0.85,0.92s-0.29,0.88-0.29,1.45v2.9c0,0.57,0.1,1.05,0.29,1.45s0.48,0.71,0.85,0.92s0.82,0.32,1.35,0.32
			C80.39,36.63,80.84,36.52,81.21,36.31z"/>
		<path class="st5" d="M86.42,34.67c0,0.62,0.16,1.1,0.48,1.44c0.32,0.34,0.78,0.51,1.37,0.51c0.58,0,1.04-0.16,1.36-0.47
			c0.32-0.31,0.48-0.75,0.48-1.33l0.1,1.47c-0.17,0.35-0.46,0.64-0.85,0.88c-0.4,0.24-0.88,0.35-1.46,0.35
			c-0.78,0-1.38-0.25-1.8-0.75s-0.64-1.21-0.64-2.12v-4.29h0.98V34.67z M90.11,30.38h0.97v7.06h-0.97V30.38z"/>
		<path class="st5" d="M92.64,30.38h3.18v0.84h-3.18V30.38z M93.77,37c-0.26-0.32-0.4-0.78-0.4-1.4v-7.27h0.98v7.29
			c0,0.3,0.07,0.54,0.2,0.7s0.34,0.25,0.61,0.25h0.67v0.91h-0.8C94.45,37.47,94.04,37.31,93.77,37z"/>
	</g>
	<circle class="st5" cx="51" cy="25" r="1"/>
</g>
</svg>
